<?xml version="1.0" encoding="utf-8"?>
<!-- Generator: Adobe Illustrator 21.1.0, SVG Export Plug-In . SVG Version: 6.00 Build 0)  -->
<svg version="1.1" id="Capa_1" xmlns="http://www.w3.org/2000/svg" xmlns:xlink="http://www.w3.org/1999/xlink" x="0px" y="0px"
	 viewBox="0 0 1027.7 134.6" style="enable-background:new 0 0 1027.7 134.6;" xml:space="preserve">
<style type="text/css">
	.st0{clip-path:url(#SVGID_2_);}
	.st1{clip-path:url(#SVGID_4_);}
	.st2{clip-path:url(#SVGID_6_);}
	.st3{clip-path:url(#SVGID_8_);}
	.st4{clip-path:url(#SVGID_10_);}
	.st5{clip-path:url(#SVGID_12_);}
	.st6{clip-path:url(#SVGID_14_);}
	.st7{clip-path:url(#SVGID_16_);}
	.st8{clip-path:url(#SVGID_18_);}
	.st9{clip-path:url(#SVGID_20_);}
</style>
<title>mainBanner</title>
<g id="Capa_2">
	<g id="Capa_1-2">
		<path d="M427.5,67.1l5.5,17.4h-12.1L427.5,67.1z M441,107h13.2l-21.1-58.2h-11L398.9,107h13.7l3.7-10.2h21L441,107z"/>
		<path d="M399.3,48.8h-13.8V85c0,7.4-3.4,12.1-10.6,12.1s-10.5-4.7-10.5-12.1V48.8h-13.8V85c0,14.6,8.2,23.4,24.3,23.4
			c16.2,0,24.3-8.8,24.3-23.4V48.8z"/>
		<path d="M343.9,48.8h-13.8v35.3c0,9.3-4.1,11.5-11.3,15.3l5.5,10.5c6.2-2.6,19.6-9.3,19.6-21.8L343.9,48.8z"/>
		<polygon points="289.8,48.8 289.8,82.5 265.9,48.8 255.8,48.8 255.8,107 268.9,107 268.9,73.2 293.1,107 302.8,107 302.8,48.8 		
			"/>
		<path d="M226.1,67.1l5.6,17.4h-12.2L226.1,67.1z M239.7,107h13.2l-21.1-58.2h-11L197.6,107h13.7l3.7-10.2h21L239.7,107z"/>
		<path d="M177.3,46.9c-14.1,0-21.6,6.1-21.6,17s7.4,15.2,17.7,19.2c6.4,2.4,11.4,4.3,11.4,8.6s-4.2,4.9-9,4.9
			c-5.9-0.1-11.8-1.3-17.3-3.3l-3,11.6c6.6,2.6,13.7,4,20.8,4.1c14.6,0,22.1-6.7,22.1-18.1c0-9-4.8-13.8-16.6-18.5
			c-10.1-4-12.3-4.8-12.3-8c0-3.9,3.3-5.6,8.6-5.6c5,0.1,9.9,1.1,14.6,2.9l3.2-11.7C189.8,47.9,183.6,46.9,177.3,46.9"/>
		<polygon points="491.8,48.8 491.8,82.5 467.9,48.8 457.9,48.8 457.9,107 470.9,107 470.9,73.2 495.2,107 504.9,107 504.9,48.8 		
			"/>
		<path d="M333.3,31.2v-5h9.3v-3.7h-9.3v-4.8h10.2v-3.9h-14.3v21.3h14.6v-3.9H333.3z M322.3,26.6c0.1,2.4-1.8,4.5-4.3,4.6
			c-0.1,0-0.2,0-0.3,0h-4.5V17.7h4.5c2.5-0.1,4.5,1.9,4.6,4.4c0,0.1,0,0.3,0,0.4V26.6z M317.6,13.8h-8.4v21.3h8.6c4.6,0,8.6-3,8.6-8
			v-5.5C326.4,16.6,322.1,13.8,317.6,13.8z M288.8,32c-2.5,0.2-4.7-1.7-4.9-4.3c0-0.1,0-0.3,0-0.4v-6c0-3,2.4-4.5,4.9-4.5
			c2.8,0,4.9,1.5,4.9,4.5v5.9C293.7,30.3,291.6,32,288.8,32z M288.8,35.8c4.9,0,9-3,9-8.1v-6.5c0-5.1-4-8-9-8s-9,2.9-9,8v6.5
			C279.8,32.7,283.9,35.8,288.8,35.8L288.8,35.8z M273,13.8v13.3l-10.1-13.3h-2.8v21.3h3.9V21.7l10.2,13.4h2.7V13.8H273z
			 M244.7,17.7h5.3c2.3,0,3.2,1.4,3.2,2.8c0.1,1.6-1.1,2.9-2.7,3c-0.2,0-0.3,0-0.5,0h-5.3L244.7,17.7z M253.6,35.1h4.7l-5.4-8.3
			c2.6-0.9,4.4-3.5,4.2-6.3c0-3.6-2.2-6.7-7.2-6.7h-9.3v21.3h4v-7.7h4L253.6,35.1z M227.2,31.2v-5h9.3v-3.7h-9.3v-4.8h10.2v-3.9
			h-14.3v21.3h14.6v-3.9L227.2,31.2z M220,13.8h-4v21.3h4V13.8z M206.5,31.2H201v-5.5h5.9c1.5-0.2,2.8,0.9,3,2.4c0,0.1,0,0.2,0,0.3
			C209.9,30,208.8,31.2,206.5,31.2z M206.3,17.7c1.3-0.1,2.5,0.8,2.6,2.2c0,0.1,0,0.1,0,0.2c0,1.2-1,2.2-2.3,2.2c0,0-0.1,0-0.1,0
			H201v-4.6L206.3,17.7z M210.9,23.6c1.3-1.1,2-2.7,1.9-4.4c0-3.4-2.8-5.5-6.6-5.5H197v21.3h9.5c3.8,0,7.3-1.9,7.3-6.3
			C213.9,26.7,212.8,24.7,210.9,23.6z M185.1,32c-2.5,0.2-4.7-1.7-4.9-4.3c0-0.1,0-0.3,0-0.4v-6c0-3,2.4-4.5,4.9-4.5
			c2.8,0,4.9,1.5,4.9,4.5v5.9C190,30.3,187.9,32,185.1,32z M185.1,35.8c4.9,0,9-3,9-8.1v-6.5c0-5.1-4-8-9-8s-9,2.9-9,8v6.5
			C176.1,32.7,180.2,35.8,185.1,35.8L185.1,35.8z M165.1,22.8v3.9h4.2v5.2c-1.2,0.2-2.4,0.3-3.6,0.3c-3.1,0-5.6-1.5-5.6-5.9v-3.7
			c0-4.5,2.6-5.9,6-5.9c2,0,4,0.3,5.9,1l1-3.5c-2.2-0.8-4.4-1.2-6.7-1.1c-6.7,0-10.1,3.2-10.1,9.2v4.3c0,5.8,3.8,9.2,9.5,9.2
			c2.7,0,5.3-0.5,7.8-1.5V22.8L165.1,22.8z"/>
		<path d="M107.8,12.9c11.1,8,4.9,35.6-7.7,43.9c1.3-12.4,2.8-33.6-12-45.2l0,0C94.5,12.7,102.4,9,107.8,12.9"/>
		<g>
			<defs>
				<path id="SVGID_1_" d="M107.8,12.9c11.1,8,4.9,35.6-7.7,43.9c1.3-12.4,2.8-33.6-12-45.2l0,0C94.5,12.7,102.4,9,107.8,12.9"/>
			</defs>
			<use xlink:href="#SVGID_1_"  style="overflow:visible;"/>
			<clipPath id="SVGID_2_">
				<use xlink:href="#SVGID_1_"  style="overflow:visible;"/>
			</clipPath>
			<g class="st0">
				<rect x="88" y="9" width="30.8" height="47.8"/>
			</g>
		</g>
		<path d="M132.2,46.5c4.2,13-16.9,31.7-32.1,31c8.3-9.2,22-25.5,16.8-43.6l0,0C121.6,38.6,130.1,40.2,132.2,46.5"/>
		<g>
			<defs>
				<path id="SVGID_3_" d="M132.2,46.5c4.2,13-16.9,31.7-32.1,31c8.3-9.2,22-25.5,16.8-43.6l0,0C121.6,38.6,130.1,40.2,132.2,46.5"
					/>
			</defs>
			<use xlink:href="#SVGID_3_"  style="overflow:visible;"/>
			<clipPath id="SVGID_4_">
				<use xlink:href="#SVGID_3_"  style="overflow:visible;"/>
			</clipPath>
			<g class="st1">
				<rect x="100.1" y="33.8" width="36.3" height="44.3"/>
			</g>
		</g>
		<path d="M132.2,88.1c-4.2,13-32.3,15.7-44.1,6.2c12.2-2.6,32.8-7.7,39.3-25.4l0,0C128.2,75.4,134.2,81.8,132.2,88.1"/>
		<g>
			<defs>
				<path id="SVGID_5_" d="M132.2,88.1c-4.2,13-32.3,15.7-44.1,6.2c12.2-2.6,32.8-7.7,39.3-25.4l0,0
					C128.2,75.4,134.2,81.8,132.2,88.1"/>
			</defs>
			<use xlink:href="#SVGID_5_"  style="overflow:visible;"/>
			<clipPath id="SVGID_6_">
				<use xlink:href="#SVGID_5_"  style="overflow:visible;"/>
			</clipPath>
			<g class="st2">
				<rect x="88.1" y="68.9" width="46.2" height="34.8"/>
			</g>
		</g>
		<path d="M107.8,121.7c-11.1,8-35.4-6.3-39.4-20.9c11.4,5.1,31.1,13.1,46.7,2.5l0,0C112,109.1,113.1,117.8,107.8,121.7"/>
		<g>
			<defs>
				<path id="SVGID_7_" d="M107.8,121.7c-11.1,8-35.4-6.3-39.4-20.9c11.4,5.1,31.1,13.1,46.7,2.5l0,0
					C112,109.1,113.1,117.8,107.8,121.7"/>
			</defs>
			<use xlink:href="#SVGID_7_"  style="overflow:visible;"/>
			<clipPath id="SVGID_8_">
				<use xlink:href="#SVGID_7_"  style="overflow:visible;"/>
			</clipPath>
			<g class="st3">
				<rect x="68.4" y="100.8" width="46.7" height="29"/>
			</g>
		</g>
		<path d="M68.2,134.6c-13.7,0-24.9-25.9-19.5-40.1c6.2,10.8,17.5,28.8,36.3,29.5l0,0C79,126.9,74.8,134.6,68.2,134.6"/>
		<g>
			<defs>
				<path id="SVGID_9_" d="M68.2,134.6c-13.7,0-24.9-25.9-19.5-40.1c6.2,10.8,17.5,28.8,36.3,29.5l0,0
					C79,126.9,74.8,134.6,68.2,134.6"/>
			</defs>
			<use xlink:href="#SVGID_9_"  style="overflow:visible;"/>
			<clipPath id="SVGID_10_">
				<use xlink:href="#SVGID_9_"  style="overflow:visible;"/>
			</clipPath>
			<g class="st4">
				<rect x="43.3" y="94.5" width="41.6" height="40.1"/>
			</g>
		</g>
		<path d="M28.7,121.7c-11.1-8-4.9-35.6,7.7-43.9c-1.3,12.4-2.8,33.6,12,45.2l0,0C41.9,121.8,34,125.6,28.7,121.7"/>
		<g>
			<defs>
				<path id="SVGID_11_" d="M28.7,121.7c-11.1-8-4.9-35.6,7.7-43.9c-1.3,12.4-2.8,33.6,12,45.2l0,0C41.9,121.8,34,125.6,28.7,121.7"
					/>
			</defs>
			<use xlink:href="#SVGID_11_"  style="overflow:visible;"/>
			<clipPath id="SVGID_12_">
				<use xlink:href="#SVGID_11_"  style="overflow:visible;"/>
			</clipPath>
			<g class="st5">
				<rect x="17.6" y="77.8" width="30.8" height="47.8"/>
			</g>
		</g>
		<path d="M4.2,88.1c-4.2-13,17-31.7,32.1-31c-8.3,9.2-22,25.5-16.8,43.6l0,0C14.9,96,6.3,94.3,4.2,88.1"/>
		<g>
			<defs>
				<path id="SVGID_13_" d="M4.2,88.1c-4.2-13,17-31.7,32.1-31c-8.3,9.2-22,25.5-16.8,43.6l0,0C14.9,96,6.3,94.3,4.2,88.1"/>
			</defs>
			<use xlink:href="#SVGID_13_"  style="overflow:visible;"/>
			<clipPath id="SVGID_14_">
				<use xlink:href="#SVGID_13_"  style="overflow:visible;"/>
			</clipPath>
			<g class="st6">
				<rect y="56.4" width="36.3" height="44.3"/>
			</g>
		</g>
		<path d="M4.2,46.5c4.2-13,32.3-15.7,44.1-6.2C36.2,42.9,15.5,48,9.1,65.7l0,0C8.2,59.1,2.2,52.8,4.2,46.5"/>
		<g>
			<defs>
				<path id="SVGID_15_" d="M4.2,46.5c4.2-13,32.3-15.7,44.1-6.2C36.2,42.9,15.5,48,9.1,65.7l0,0C8.2,59.1,2.2,52.8,4.2,46.5"/>
			</defs>
			<use xlink:href="#SVGID_15_"  style="overflow:visible;"/>
			<clipPath id="SVGID_16_">
				<use xlink:href="#SVGID_15_"  style="overflow:visible;"/>
			</clipPath>
			<g class="st7">
				<rect x="2.2" y="30.8" width="46.2" height="34.8"/>
			</g>
		</g>
		<path d="M28.7,12.9C39.7,4.8,64,19.2,68,33.8c-11.4-5.1-31.1-13.1-46.7-2.5l0,0C24.4,25.4,23.3,16.7,28.7,12.9"/>
		<g>
			<defs>
				<path id="SVGID_17_" d="M28.7,12.9C39.7,4.8,64,19.2,68,33.8c-11.4-5.1-31.1-13.1-46.7-2.5l0,0C24.4,25.4,23.3,16.7,28.7,12.9"
					/>
			</defs>
			<use xlink:href="#SVGID_17_"  style="overflow:visible;"/>
			<clipPath id="SVGID_18_">
				<use xlink:href="#SVGID_17_"  style="overflow:visible;"/>
			</clipPath>
			<g class="st8">
				<rect x="21.3" y="4.8" width="46.7" height="29"/>
			</g>
		</g>
		<path d="M68.2,0c13.7,0,24.9,25.9,19.5,40.1c-6.2-10.8-17.5-28.9-36.3-29.5l0,0C57.4,7.7,61.6,0,68.2,0"/>
		<g>
			<defs>
				<path id="SVGID_19_" d="M68.2,0c13.7,0,24.9,25.9,19.5,40.1c-6.2-10.8-17.5-28.9-36.3-29.5l0,0C57.4,7.7,61.6,0,68.2,0"/>
			</defs>
			<use xlink:href="#SVGID_19_"  style="overflow:visible;"/>
			<clipPath id="SVGID_20_">
				<use xlink:href="#SVGID_19_"  style="overflow:visible;"/>
			</clipPath>
			<g class="st9">
				<rect x="51.5" width="41.6" height="40.1"/>
			</g>
		</g>
		<rect x="573.6" width="4.1" height="134.6"/>
		<path d="M697.3,95.5h-13.2l-2.3,6.5h-8.6l14.7-36.7h6.9L708,102h-8.3L697.3,95.5z M687,87.8h7.7l-3.5-10.9L687,87.8z M736.7,94.2
			v7.8h-25.5V65.3h8.7v28.9H736.7z M769.6,88.1c0,9.2-5.1,14.7-15.3,14.7S739,97.3,739,88.1V65.3h8.7v22.8c0,4.7,2.1,7.6,6.6,7.6
			s6.7-2.9,6.7-7.6V65.3h8.7L769.6,88.1z M804.6,79.1v9c0,8.6-7.1,13.9-15.1,13.9H774V65.3h15.2C797,65.3,804.5,70.4,804.6,79.1
			L804.6,79.1z M795.9,80.8c0-4.8-2.9-7.7-6.4-7.7h-6.8v21.1h6.8c3.5,0,6.4-2.7,6.4-7.2V80.8z M851.3,77.5c0,7.2-4,12.7-12.8,12.7
			h-8.2V102h-8.7V65.3h16.9C847.3,65.3,851.3,70.7,851.3,77.5L851.3,77.5z M842.7,77.5c0-2.2-1.2-4.4-4.1-4.4h-8.2v9.3h8.2
			C841.4,82.4,842.6,80.2,842.7,77.5L842.7,77.5z M884.7,88.1c0,9.2-5.1,14.7-15.3,14.7s-15.3-5.6-15.3-14.7V65.3h8.7v22.8
			c0,4.7,2.1,7.6,6.6,7.6s6.7-2.9,6.7-7.6V65.3h8.7L884.7,88.1z M919,91.1c0,7.4-6.4,10.9-13,10.9h-16.9V65.3h16.2
			c6.8,0,11.8,3.6,11.8,9.6c0.1,2.8-1.1,5.5-3.2,7.4C917.1,84,919.1,87.4,919,91.1L919,91.1z M897.8,73.1v6.4h7.8
			c1.7,0.1,3-1.2,3.1-2.9c0-0.1,0-0.1,0-0.2c0.1-1.8-1.3-3.3-3.1-3.3c-0.1,0-0.2,0-0.3,0H897.8z M910.5,90.2c0-2.1-1.7-3.7-3.7-3.7
			c-0.1,0-0.2,0-0.3,0h-8.7v7.7h8.2C909.5,94.2,910.5,92.2,910.5,90.2L910.5,90.2z M947.7,94.2v7.8h-25.5V65.3h8.7v28.9L947.7,94.2z
			 M959.3,102h-8.7V65.3h8.7V102z M990.9,66.1l-2.1,7c-2.7-1.1-5.7-1.7-8.6-1.8c-4.9,0-8,2.1-8,9.5v5.8c0,7.4,3.1,9.5,8,9.5
			c2.8-0.1,5.5-0.7,8-1.8l2.1,7c-3.2,1.3-6.6,2-10,1.9c-11.9,0-16.8-5.8-16.8-16.1v-6.9c0-10.3,4.9-16.1,16.8-16.1
			C984,64.1,987.6,64.7,990.9,66.1L990.9,66.1z M1016.9,95.6h-13.2l-2.3,6.4h-8.6l14.7-36.7h6.9l13.3,36.7h-8.3L1016.9,95.6z
			 M1006.6,87.8h7.7l-3.5-10.9L1006.6,87.8z M661.4,51.8l-0.5-12l-4.8,8.5h-1.7l-4.8-8.5l-0.5,12h-3.4l0.8-19.8h2.5l6.3,11.3
			l6.3-11.3h2.5l0.8,19.8L661.4,51.8z M671.4,51.8h-3.8V32h3.8V51.8z M690.2,32v19.8h-2.5l-9.5-12.5v12.5h-3.6V32h2.6l9.4,12.4V32
			H690.2z M697.1,51.8h-3.8V32h3.8V51.8z M712.7,32.4l-0.9,3.5c-1.6-0.6-3.3-1-5-1c-2.4,0-3.5,0.8-3.5,2.3c0,1.3,1,1.7,4.5,3
			c4,1.5,5.8,3,5.8,6.2c0,4-2.9,6-7.4,6c-2.3,0-4.6-0.5-6.8-1.3l0.8-3.4c1.9,0.7,3.8,1.1,5.8,1.1c1.9,0,3.8-0.3,3.8-2.2
			s-1.9-2.4-4.4-3.3c-3.5-1.3-6-2.7-6-6.3s2.3-5.7,7.1-5.7C708.7,31.3,710.8,31.6,712.7,32.4L712.7,32.4z M730.6,35.6h-6v16.2h-3.8
			V35.6h-6V32h15.7L730.6,35.6z M746.2,48.2v3.6h-13.5V32h13.3v3.6h-9.5v4.5h8.6v3.4h-8.6v4.7H746.2z M756.4,44.7h-3.8v7.2h-3.8V32
			h8.7c4.6,0,6.7,2.8,6.7,6.2c0.1,2.6-1.5,5-3.9,5.9l5,7.8h-4.4L756.4,44.7z M752.7,41h4.9c1.4,0.2,2.8-0.9,2.9-2.3
			c0-0.2,0-0.3,0-0.5c0-1.3-0.8-2.6-3-2.6h-4.9V41z M771.2,51.8h-3.8V32h3.8V51.8z M774.1,44.9v-6c0-4.8,3.8-7.5,8.3-7.5
			s8.4,2.7,8.4,7.5v6c0,4.8-3.8,7.6-8.4,7.6S774.1,49.6,774.1,44.9z M787,44.6v-5.5c0-2.8-2-4.2-4.6-4.2c-2.4,0-4.6,1.4-4.6,4.2v5.5
			c0,2.4,1.9,4.3,4.2,4.3c0.1,0,0.2,0,0.4,0C785,48.9,787,47.4,787,44.6z M816.6,39.3v5.1c0,4.6-3.8,7.4-8,7.4h-8V32h7.8
			C812.6,32,816.5,34.7,816.6,39.3L816.6,39.3z M812.8,40.1c0.2-2.3-1.6-4.3-3.9-4.5c-0.1,0-0.3,0-0.4,0h-4.2v12.6h4.2
			c2.3,0.1,4.2-1.7,4.3-4c0-0.1,0-0.2,0-0.3V40.1z M832.9,48.2v3.6h-13.6V32h13.3v3.6h-9.5v4.5h8.6v3.4h-8.6v4.7L832.9,48.2z
			 M872.4,60.6h-8.3l4.9-6.1h9.5L872.4,60.6z M670.5,66.1l-2,7.3c-2.9-1.1-6-1.8-9.2-1.8c-3.3,0-5.4,1.1-5.4,3.6
			c0,2,1.4,2.6,7.8,5.1c7.4,2.9,10.4,6,10.4,11.7c0,7.2-4.8,11.4-13.9,11.4c-4.5-0.1-8.9-0.9-13.1-2.6l1.9-7.3
			c3.5,1.3,7.2,2,10.9,2.1c3,0,5.7-0.5,5.7-3.1s-3.2-3.9-7.2-5.4c-6.5-2.6-11.2-5.2-11.2-12.1s4.8-10.7,13.6-10.7
			C662.8,64.1,666.8,64.8,670.5,66.1z"/>
	</g>
</g>
</svg>
